<svg width="1191" height="670" viewBox="0 0 1191 670" fill="none" xmlns="http://www.w3.org/2000/svg">
<rect width="1191" height="670" rx="43" fill="#140C41"/>
<path d="M172.259 88.607L173.507 100.127L173.219 98.399C174.435 95.903 176.099 93.791 178.211 92.063C180.323 90.271 182.403 88.895 184.451 87.935C186.563 86.975 188.163 86.495 189.251 86.495L188.579 99.935C185.443 99.551 182.755 100.063 180.515 101.471C178.275 102.879 176.547 104.735 175.331 107.039C174.115 109.343 173.507 111.711 173.507 114.143V130.559H160.163V88.607H172.259ZM237.983 131.711C232.863 131.711 228.511 130.751 224.927 128.831C221.407 126.911 218.719 124.255 216.863 120.863C215.007 117.471 214.079 113.567 214.079 109.151C214.079 104.927 215.167 101.119 217.343 97.727C219.519 94.335 222.431 91.647 226.079 89.663C229.727 87.615 233.791 86.591 238.271 86.591C244.287 86.591 249.215 88.351 253.055 91.871C256.959 95.327 259.487 100.351 260.639 106.943L227.999 117.311L225.023 110.015L248.639 102.047L245.855 103.295C245.343 101.631 244.415 100.191 243.071 98.975C241.791 97.695 239.839 97.055 237.215 97.055C235.231 97.055 233.471 97.535 231.935 98.495C230.463 99.391 229.311 100.703 228.479 102.431C227.711 104.095 227.327 106.079 227.327 108.383C227.327 111.007 227.807 113.215 228.767 115.007C229.727 116.735 231.039 118.047 232.703 118.943C234.367 119.839 236.223 120.287 238.271 120.287C239.743 120.287 241.151 120.031 242.495 119.519C243.903 119.007 245.279 118.335 246.623 117.503L252.575 127.487C250.335 128.767 247.903 129.791 245.279 130.559C242.719 131.327 240.287 131.711 237.983 131.711ZM310.726 131.711C305.606 131.711 301.254 130.751 297.67 128.831C294.15 126.911 291.462 124.255 289.606 120.863C287.75 117.471 286.822 113.567 286.822 109.151C286.822 104.927 287.91 101.119 290.086 97.727C292.262 94.335 295.174 91.647 298.822 89.663C302.47 87.615 306.534 86.591 311.014 86.591C317.03 86.591 321.958 88.351 325.798 91.871C329.702 95.327 332.23 100.351 333.382 106.943L300.742 117.311L297.766 110.015L321.382 102.047L318.598 103.295C318.086 101.631 317.158 100.191 315.814 98.975C314.534 97.695 312.582 97.055 309.958 97.055C307.974 97.055 306.214 97.535 304.678 98.495C303.206 99.391 302.054 100.703 301.222 102.431C300.454 104.095 300.07 106.079 300.07 108.383C300.07 111.007 300.55 113.215 301.51 115.007C302.47 116.735 303.782 118.047 305.446 118.943C307.11 119.839 308.966 120.287 311.014 120.287C312.486 120.287 313.894 120.031 315.238 119.519C316.646 119.007 318.022 118.335 319.366 117.503L325.318 127.487C323.078 128.767 320.646 129.791 318.022 130.559C315.462 131.327 313.03 131.711 310.726 131.711ZM362.828 54.815H376.268V130.559H362.828V54.815ZM430.429 131.711C425.309 131.711 420.957 130.751 417.373 128.831C413.853 126.911 411.165 124.255 409.309 120.863C407.453 117.471 406.525 113.567 406.525 109.151C406.525 104.927 407.613 101.119 409.789 97.727C411.965 94.335 414.877 91.647 418.525 89.663C422.173 87.615 426.237 86.591 430.717 86.591C436.733 86.591 441.661 88.351 445.501 91.871C449.405 95.327 451.933 100.351 453.085 106.943L420.445 117.311L417.469 110.015L441.085 102.047L438.301 103.295C437.789 101.631 436.861 100.191 435.517 98.975C434.237 97.695 432.285 97.055 429.661 97.055C427.677 97.055 425.917 97.535 424.381 98.495C422.909 99.391 421.757 100.703 420.925 102.431C420.157 104.095 419.773 106.079 419.773 108.383C419.773 111.007 420.253 113.215 421.213 115.007C422.173 116.735 423.485 118.047 425.149 118.943C426.813 119.839 428.669 120.287 430.717 120.287C432.189 120.287 433.597 120.031 434.941 119.519C436.349 119.007 437.725 118.335 439.069 117.503L445.021 127.487C442.781 128.767 440.349 129.791 437.725 130.559C435.165 131.327 432.733 131.711 430.429 131.711ZM486.468 70.175H499.908V88.415H510.084V98.879H499.908V130.559H486.468V98.879H479.94V88.415H486.468V70.175Z" fill="#2F3EC5"/>
<path fill-rule="evenodd" clip-rule="evenodd" d="M22.4406 81.6934C15.0206 89.1133 15.0206 101.143 22.4406 108.563L67.4367 153.56C74.8566 160.979 86.8868 160.979 94.3067 153.559L139.56 108.307C146.98 100.887 146.98 88.8566 139.56 81.4366L94.5635 36.4405C87.1435 29.0206 75.1134 29.0206 67.6934 36.4405L22.4406 81.6934ZM102.918 59.903H58.758V130.559H72.678V102.815H98.886V89.375H72.678V73.343H102.918V59.903Z" fill="#2F3EC5"/>
</svg>
