<?xml version="1.0" encoding="utf-8"?>
<!-- Generator: Adobe Illustrator 26.0.1, SVG Export Plug-In . SVG Version: 6.00 Build 0)  -->
<svg version="1.1" id="Layer_1" xmlns="http://www.w3.org/2000/svg" xmlns:xlink="http://www.w3.org/1999/xlink" x="0px" y="0px"
	 viewBox="0 0 512 512" style="enable-background:new 0 0 512 512;" xml:space="preserve">
<style type="text/css">
	.st0{fill:#FFFFFF;}
</style>
<g transform="translate(0.000000,512.000000) scale(0.100000,-0.100000)">
	<path class="st0" d="M2155,5081c-77-21-482-130-899-241c-418-111-780-212-805-225c-101-51-171-161-171-268c0-43,681-2618,709-2682
		c10-22,36-62,59-88c23-27,42-55,42-63c0-52,69-126,723-780c544-543,692-686,732-705c72-34,182-34,248,1c69,36,1988,1955,2019,2019
		c18,35,23,63,23,121c0,127,3,123-467,596l-419,421l72,264c85,310,91,367,47,461c-30,65-90,127-145,151c-21,9-281,83-578,163
		s-547,150-555,154c-9,5-38,98-79,252c-80,306-91,336-147,393C2466,5126,2367,5140,2155,5081z M2430,4957c19-12,41-36,51-52
		c28-50,713-2649,705-2678c-8-33-51-84-87-102c-15-8-394-112-841-231c-447-118-844-224-883-235c-118-32-180-23-233,34
		c-19,20-89,272-369,1318c-190,712-347,1314-350,1339c-5,55,19,98,74,134c27,18,231,76,723,207c377,100,773,205,880,234
		C2322,4985,2381,4991,2430,4957z M3359,4071c482-131,516-142,548-173c71-69,94,42-296-1409c-193-717-358-1319-366-1337
		c-20-43-69-72-125-72c-28,0-351,83-862,222c-449,122-816,223-815,224s377,101,835,223c458,121,851,230,875,242
		c95,48,163,143,173,246c6,53-15,136-246,1008c-139,523-255,956-257,963c-3,7,0,10,8,7C2839,4213,3076,4147,3359,4071z M4302,2633
		c337-338,387-393,393-425c16-87,65-34-975-1073c-533-533-980-973-992-978c-13-5-46-7-75-5c-42,4-59,11-100,46
		c-73,62-1210,1204-1193,1198c8-3,389-107,845-232c748-205,838-227,910-228c68-1,87,3,131,26c66,34,130,108,148,167
		c7,25,125,461,261,969c137,507,252,922,255,922S4089,2846,4302,2633z"/>
</g>
</svg>
