<svg width="502" height="127" viewBox="0 0 502 127" fill="none" xmlns="http://www.w3.org/2000/svg">
<path d="M154.008 58.048L155.256 69.568L154.968 67.84C156.184 65.344 157.848 63.232 159.96 61.504C162.072 59.712 164.152 58.336 166.2 57.376C168.312 56.416 169.912 55.936 171 55.936L170.328 69.376C167.192 68.992 164.504 69.504 162.264 70.912C160.024 72.32 158.296 74.176 157.08 76.48C155.864 78.784 155.256 81.152 155.256 83.584V100H141.912V58.048H154.008ZM219.732 101.152C214.612 101.152 210.26 100.192 206.676 98.272C203.156 96.352 200.468 93.696 198.612 90.304C196.756 86.912 195.828 83.008 195.828 78.592C195.828 74.368 196.916 70.56 199.092 67.168C201.268 63.776 204.18 61.088 207.828 59.104C211.476 57.056 215.54 56.032 220.02 56.032C226.036 56.032 230.964 57.792 234.804 61.312C238.708 64.768 241.236 69.792 242.388 76.384L209.748 86.752L206.772 79.456L230.388 71.488L227.604 72.736C227.092 71.072 226.164 69.632 224.82 68.416C223.54 67.136 221.588 66.496 218.964 66.496C216.98 66.496 215.22 66.976 213.684 67.936C212.212 68.832 211.06 70.144 210.228 71.872C209.46 73.536 209.076 75.52 209.076 77.824C209.076 80.448 209.556 82.656 210.516 84.448C211.476 86.176 212.788 87.488 214.452 88.384C216.116 89.28 217.972 89.728 220.02 89.728C221.492 89.728 222.9 89.472 224.244 88.96C225.652 88.448 227.028 87.776 228.372 86.944L234.324 96.928C232.084 98.208 229.652 99.232 227.028 100C224.468 100.768 222.036 101.152 219.732 101.152ZM292.475 101.152C287.355 101.152 283.003 100.192 279.419 98.272C275.899 96.352 273.211 93.696 271.355 90.304C269.499 86.912 268.571 83.008 268.571 78.592C268.571 74.368 269.659 70.56 271.835 67.168C274.011 63.776 276.923 61.088 280.571 59.104C284.219 57.056 288.283 56.032 292.763 56.032C298.779 56.032 303.707 57.792 307.547 61.312C311.451 64.768 313.979 69.792 315.131 76.384L282.491 86.752L279.515 79.456L303.131 71.488L300.347 72.736C299.835 71.072 298.907 69.632 297.563 68.416C296.283 67.136 294.331 66.496 291.707 66.496C289.723 66.496 287.963 66.976 286.427 67.936C284.955 68.832 283.803 70.144 282.971 71.872C282.203 73.536 281.819 75.52 281.819 77.824C281.819 80.448 282.299 82.656 283.259 84.448C284.219 86.176 285.531 87.488 287.195 88.384C288.859 89.28 290.715 89.728 292.763 89.728C294.235 89.728 295.643 89.472 296.987 88.96C298.395 88.448 299.771 87.776 301.115 86.944L307.067 96.928C304.827 98.208 302.395 99.232 299.771 100C297.211 100.768 294.779 101.152 292.475 101.152ZM344.577 24.256H358.017V100H344.577V24.256ZM412.178 101.152C407.058 101.152 402.706 100.192 399.122 98.272C395.602 96.352 392.914 93.696 391.058 90.304C389.202 86.912 388.274 83.008 388.274 78.592C388.274 74.368 389.362 70.56 391.538 67.168C393.714 63.776 396.626 61.088 400.274 59.104C403.922 57.056 407.986 56.032 412.466 56.032C418.482 56.032 423.41 57.792 427.25 61.312C431.154 64.768 433.682 69.792 434.834 76.384L402.194 86.752L399.218 79.456L422.834 71.488L420.05 72.736C419.538 71.072 418.61 69.632 417.266 68.416C415.986 67.136 414.034 66.496 411.41 66.496C409.426 66.496 407.666 66.976 406.13 67.936C404.658 68.832 403.506 70.144 402.674 71.872C401.906 73.536 401.522 75.52 401.522 77.824C401.522 80.448 402.002 82.656 402.962 84.448C403.922 86.176 405.234 87.488 406.898 88.384C408.562 89.28 410.418 89.728 412.466 89.728C413.938 89.728 415.346 89.472 416.69 88.96C418.098 88.448 419.474 87.776 420.818 86.944L426.77 96.928C424.53 98.208 422.098 99.232 419.474 100C416.914 100.768 414.482 101.152 412.178 101.152ZM468.217 39.616H481.657V57.856H491.833V68.32H481.657V100H468.217V68.32H461.689V57.856H468.217V39.616Z" fill="#F9F9F9"/>
<path fill-rule="evenodd" clip-rule="evenodd" d="M6.43503 50.565C-0.984932 57.9849 -0.984936 70.0151 6.43502 77.435L50.3122 121.312C57.7322 128.732 69.7623 128.732 77.1823 121.312L121.312 77.1823C128.732 69.7623 128.732 57.7322 121.312 50.3122L77.435 6.43503C70.0151 -0.984933 57.9849 -0.984935 50.565 6.43503L6.43503 50.565ZM86.28 29.344H42.12V100H56.04V72.256H82.248V58.816H56.04V42.784H86.28V29.344Z" fill="white"/>
</svg>
