<svg width="509" height="142" viewBox="0 0 509 142" fill="none" xmlns="http://www.w3.org/2000/svg">
<path d="M161.008 65.048L162.256 76.568L161.968 74.84C163.184 72.344 164.848 70.232 166.96 68.504C169.072 66.712 171.152 65.336 173.2 64.376C175.312 63.416 176.912 62.936 178 62.936L177.328 76.376C174.192 75.992 171.504 76.504 169.264 77.912C167.024 79.32 165.296 81.176 164.08 83.48C162.864 85.784 162.256 88.152 162.256 90.584V107H148.912V65.048H161.008ZM226.732 108.152C221.612 108.152 217.26 107.192 213.676 105.272C210.156 103.352 207.468 100.696 205.612 97.304C203.756 93.912 202.828 90.008 202.828 85.592C202.828 81.368 203.916 77.56 206.092 74.168C208.268 70.776 211.18 68.088 214.828 66.104C218.476 64.056 222.54 63.032 227.02 63.032C233.036 63.032 237.964 64.792 241.804 68.312C245.708 71.768 248.236 76.792 249.388 83.384L216.748 93.752L213.772 86.456L237.388 78.488L234.604 79.736C234.092 78.072 233.164 76.632 231.82 75.416C230.54 74.136 228.588 73.496 225.964 73.496C223.98 73.496 222.22 73.976 220.684 74.936C219.212 75.832 218.06 77.144 217.228 78.872C216.46 80.536 216.076 82.52 216.076 84.824C216.076 87.448 216.556 89.656 217.516 91.448C218.476 93.176 219.788 94.488 221.452 95.384C223.116 96.28 224.972 96.728 227.02 96.728C228.492 96.728 229.9 96.472 231.244 95.96C232.652 95.448 234.028 94.776 235.372 93.944L241.324 103.928C239.084 105.208 236.652 106.232 234.028 107C231.468 107.768 229.036 108.152 226.732 108.152ZM299.475 108.152C294.355 108.152 290.003 107.192 286.419 105.272C282.899 103.352 280.211 100.696 278.355 97.304C276.499 93.912 275.571 90.008 275.571 85.592C275.571 81.368 276.659 77.56 278.835 74.168C281.011 70.776 283.923 68.088 287.571 66.104C291.219 64.056 295.283 63.032 299.763 63.032C305.779 63.032 310.707 64.792 314.547 68.312C318.451 71.768 320.979 76.792 322.131 83.384L289.491 93.752L286.515 86.456L310.131 78.488L307.347 79.736C306.835 78.072 305.907 76.632 304.563 75.416C303.283 74.136 301.331 73.496 298.707 73.496C296.723 73.496 294.963 73.976 293.427 74.936C291.955 75.832 290.803 77.144 289.971 78.872C289.203 80.536 288.819 82.52 288.819 84.824C288.819 87.448 289.299 89.656 290.259 91.448C291.219 93.176 292.531 94.488 294.195 95.384C295.859 96.28 297.715 96.728 299.763 96.728C301.235 96.728 302.643 96.472 303.987 95.96C305.395 95.448 306.771 94.776 308.115 93.944L314.067 103.928C311.827 105.208 309.395 106.232 306.771 107C304.211 107.768 301.779 108.152 299.475 108.152ZM351.577 31.256H365.017V107H351.577V31.256ZM419.178 108.152C414.058 108.152 409.706 107.192 406.122 105.272C402.602 103.352 399.914 100.696 398.058 97.304C396.202 93.912 395.274 90.008 395.274 85.592C395.274 81.368 396.362 77.56 398.538 74.168C400.714 70.776 403.626 68.088 407.274 66.104C410.922 64.056 414.986 63.032 419.466 63.032C425.482 63.032 430.41 64.792 434.25 68.312C438.154 71.768 440.682 76.792 441.834 83.384L409.194 93.752L406.218 86.456L429.834 78.488L427.05 79.736C426.538 78.072 425.61 76.632 424.266 75.416C422.986 74.136 421.034 73.496 418.41 73.496C416.426 73.496 414.666 73.976 413.13 74.936C411.658 75.832 410.506 77.144 409.674 78.872C408.906 80.536 408.522 82.52 408.522 84.824C408.522 87.448 409.002 89.656 409.962 91.448C410.922 93.176 412.234 94.488 413.898 95.384C415.562 96.28 417.418 96.728 419.466 96.728C420.938 96.728 422.346 96.472 423.69 95.96C425.098 95.448 426.474 94.776 427.818 93.944L433.77 103.928C431.53 105.208 429.098 106.232 426.474 107C423.914 107.768 421.482 108.152 419.178 108.152ZM475.217 46.616H488.657V64.856H498.833V75.32H488.657V107H475.217V75.32H468.689V64.856H475.217V46.616Z" fill="#F9F9F9"/>
<rect y="71" width="100.409" height="100.052" rx="19" transform="rotate(-45 0 71)" fill="white"/>
<path d="M49.12 36.344H93.28V49.784H63.04V65.816H89.248V79.256H63.04V107H49.12V36.344Z" fill="#4255FF"/>
</svg>
