<?xml version="1.0" encoding="utf-8"?>
<!-- Generator: Adobe Illustrator 26.0.1, SVG Export Plug-In . SVG Version: 6.00 Build 0)  -->
<svg version="1.1" id="Layer_1" xmlns="http://www.w3.org/2000/svg" xmlns:xlink="http://www.w3.org/1999/xlink" x="0px" y="0px"
	 viewBox="0 0 512 512" style="enable-background:new 0 0 512 512;" xml:space="preserve">
<style type="text/css">
	.st0{fill:#CCF281;}
</style>
<g transform="translate(0.000000,512.000000) scale(0.100000,-0.100000)">
	<path class="st0" d="M1830,5114c-514-63-902-246-1240-584C286,4226,99,3861,23,3425c-24-139-24-471,0-610c76-436,263-801,567-1105
		s669-491,1105-567c139-24,471-24,610,0c275,48,530,142,733,270l64,40l691-691C4539,18,4522,33,4654,9c265-49,506,192,457,457
		c-24,132-9,115-753,861l-691,691l40,64c128,203,222,458,270,733c24,139,24,471,0,610c-76,436-263,801-567,1105
		c-302,303-674,494-1100,565C2219,5111,1903,5123,1830,5114z M2261,4900c722-109,1309-641,1483-1345c34-138,45-224,52-383
		c22-516-206-1046-601-1394c-452-399-1047-546-1630-402c-319,79-600,239-835,474c-277,277-448,617-511,1015c-16,103-16,407,0,510
		c63,398,234,738,511,1015c308,308,676,478,1135,524C1931,4921,2181,4912,2261,4900z M3694,1711l139-140l-69-73
		c-38-41-102-105-142-143l-73-69l-141,141l-140,141l138,140c77,77,141,141,144,141C3553,1850,3618,1787,3694,1711z M4888,506
		c23-33,27-50,27-106c0-54-5-73-25-103c-53-78-140-111-230-87c-41,11-90,57-507,472l-461,460l141,143l142,143l443-442
		C4661,744,4873,527,4888,506z"/>
	<path class="st0" d="M1834,4710c-361-38-704-202-963-461c-431-431-579-1063-384-1639c80-237,208-442,384-619
		c431-431,1063-579,1639-384c237,80,442,208,619,384c431,431,579,1063,384,1639c-160,474-529,843-1003,1003
		C2290,4708,2060,4734,1834,4710z M2184,4505c309-41,577-174,802-399c550-550,550-1422,0-1972s-1422-550-1972,0s-550,1422,0,1972
		C1329,4420,1748,4563,2184,4505z"/>
	<path class="st0" d="M1964,4311c-32-14-64-60-64-92c0-38,44-87,83-93c18-3,76-10,129-15c291-32,551-192,725-446c12-17,41-71,66-120
		c25-50,54-98,64-106c47-41,124-24,148,34c17,42,8,81-43,182c-191,381-580,639-997,660C2026,4318,1975,4316,1964,4311z"/>
	<path class="st0" d="M3064,3210c-32-13-64-59-64-91c0-40,46-88,91-95c31-5,42-1,70,24s34,37,34,72s-6,47-33,71
		C3129,3220,3102,3226,3064,3210z"/>
</g>
</svg>
